<mxfile host="app.diagrams.net" modified="2023-04-30T07:47:47.851Z" agent="Mozilla/5.0 (Windows NT 10.0; Win64; x64) AppleWebKit/537.36 (KHTML, like Gecko) Chrome/112.0.0.0 Safari/537.36" etag="K4-XFJxfbBja8S3gpdM_" version="21.2.3" type="device">
  <diagram name="Page-1" id="HFX4htCMj6TCFGcyQ0V3">
    <mxGraphModel dx="1421" dy="702" grid="1" gridSize="10" guides="1" tooltips="1" connect="1" arrows="1" fold="1" page="1" pageScale="1" pageWidth="827" pageHeight="1169" math="0" shadow="0">
      <root>
        <mxCell id="0" />
        <mxCell id="1" parent="0" />
        <mxCell id="pOiQRMnXSYwT-0_w7G22-19" style="edgeStyle=orthogonalEdgeStyle;rounded=0;orthogonalLoop=1;jettySize=auto;html=1;exitX=1;exitY=0.5;exitDx=0;exitDy=0;" edge="1" parent="1" source="pOiQRMnXSYwT-0_w7G22-1" target="pOiQRMnXSYwT-0_w7G22-16">
          <mxGeometry relative="1" as="geometry" />
        </mxCell>
        <mxCell id="pOiQRMnXSYwT-0_w7G22-26" value="Deploy" style="edgeLabel;html=1;align=center;verticalAlign=middle;resizable=0;points=[];" vertex="1" connectable="0" parent="pOiQRMnXSYwT-0_w7G22-19">
          <mxGeometry x="0.148" y="1" relative="1" as="geometry">
            <mxPoint x="-13" y="1" as="offset" />
          </mxGeometry>
        </mxCell>
        <mxCell id="pOiQRMnXSYwT-0_w7G22-1" value="Backend Image" style="ellipse;whiteSpace=wrap;html=1;aspect=fixed;" vertex="1" parent="1">
          <mxGeometry x="320" y="467.5" width="80" height="80" as="geometry" />
        </mxCell>
        <mxCell id="pOiQRMnXSYwT-0_w7G22-6" style="edgeStyle=orthogonalEdgeStyle;rounded=0;orthogonalLoop=1;jettySize=auto;html=1;exitX=1;exitY=0.5;exitDx=0;exitDy=0;entryX=0;entryY=0.5;entryDx=0;entryDy=0;" edge="1" parent="1" source="pOiQRMnXSYwT-0_w7G22-3" target="pOiQRMnXSYwT-0_w7G22-1">
          <mxGeometry relative="1" as="geometry" />
        </mxCell>
        <mxCell id="pOiQRMnXSYwT-0_w7G22-7" value="Build&amp;nbsp;" style="edgeLabel;html=1;align=center;verticalAlign=middle;resizable=0;points=[];" vertex="1" connectable="0" parent="pOiQRMnXSYwT-0_w7G22-6">
          <mxGeometry x="-0.2388" y="2" relative="1" as="geometry">
            <mxPoint x="7" y="2" as="offset" />
          </mxGeometry>
        </mxCell>
        <mxCell id="pOiQRMnXSYwT-0_w7G22-3" value="Backend" style="rounded=0;whiteSpace=wrap;html=1;" vertex="1" parent="1">
          <mxGeometry x="70" y="480" width="110" height="55" as="geometry" />
        </mxCell>
        <mxCell id="pOiQRMnXSYwT-0_w7G22-10" style="edgeStyle=orthogonalEdgeStyle;rounded=0;orthogonalLoop=1;jettySize=auto;html=1;exitX=1;exitY=0.5;exitDx=0;exitDy=0;entryX=0;entryY=0.5;entryDx=0;entryDy=0;" edge="1" parent="1" source="pOiQRMnXSYwT-0_w7G22-5" target="pOiQRMnXSYwT-0_w7G22-8">
          <mxGeometry relative="1" as="geometry" />
        </mxCell>
        <mxCell id="pOiQRMnXSYwT-0_w7G22-11" value="Build" style="edgeLabel;html=1;align=center;verticalAlign=middle;resizable=0;points=[];" vertex="1" connectable="0" parent="pOiQRMnXSYwT-0_w7G22-10">
          <mxGeometry x="-0.3367" y="2" relative="1" as="geometry">
            <mxPoint x="14" y="2" as="offset" />
          </mxGeometry>
        </mxCell>
        <mxCell id="pOiQRMnXSYwT-0_w7G22-5" value="Frontend" style="rounded=0;whiteSpace=wrap;html=1;" vertex="1" parent="1">
          <mxGeometry x="70" y="620" width="110" height="55" as="geometry" />
        </mxCell>
        <mxCell id="pOiQRMnXSYwT-0_w7G22-18" style="edgeStyle=orthogonalEdgeStyle;rounded=0;orthogonalLoop=1;jettySize=auto;html=1;exitX=1;exitY=0.5;exitDx=0;exitDy=0;entryX=0;entryY=0.5;entryDx=0;entryDy=0;" edge="1" parent="1" source="pOiQRMnXSYwT-0_w7G22-8" target="pOiQRMnXSYwT-0_w7G22-17">
          <mxGeometry relative="1" as="geometry" />
        </mxCell>
        <mxCell id="pOiQRMnXSYwT-0_w7G22-28" value="Deploy" style="edgeLabel;html=1;align=center;verticalAlign=middle;resizable=0;points=[];" vertex="1" connectable="0" parent="pOiQRMnXSYwT-0_w7G22-18">
          <mxGeometry x="0.2232" y="2" relative="1" as="geometry">
            <mxPoint x="-18" y="2" as="offset" />
          </mxGeometry>
        </mxCell>
        <mxCell id="pOiQRMnXSYwT-0_w7G22-8" value="Frontend Image" style="ellipse;whiteSpace=wrap;html=1;aspect=fixed;" vertex="1" parent="1">
          <mxGeometry x="320" y="607.5" width="80" height="80" as="geometry" />
        </mxCell>
        <mxCell id="pOiQRMnXSYwT-0_w7G22-14" value="" style="rounded=0;whiteSpace=wrap;html=1;fillColor=none;dashed=1;dashPattern=8 8;" vertex="1" parent="1">
          <mxGeometry x="285" y="430" width="135" height="280" as="geometry" />
        </mxCell>
        <mxCell id="pOiQRMnXSYwT-0_w7G22-20" style="edgeStyle=orthogonalEdgeStyle;rounded=0;orthogonalLoop=1;jettySize=auto;html=1;exitX=0.5;exitY=1;exitDx=0;exitDy=0;entryX=0.5;entryY=0;entryDx=0;entryDy=0;strokeColor=default;endArrow=none;endFill=0;" edge="1" parent="1" source="pOiQRMnXSYwT-0_w7G22-16" target="pOiQRMnXSYwT-0_w7G22-17">
          <mxGeometry relative="1" as="geometry" />
        </mxCell>
        <mxCell id="pOiQRMnXSYwT-0_w7G22-40" style="edgeStyle=orthogonalEdgeStyle;rounded=0;orthogonalLoop=1;jettySize=auto;html=1;exitX=1;exitY=0.5;exitDx=0;exitDy=0;entryX=0.5;entryY=0;entryDx=0;entryDy=0;entryPerimeter=0;" edge="1" parent="1" source="pOiQRMnXSYwT-0_w7G22-16" target="pOiQRMnXSYwT-0_w7G22-39">
          <mxGeometry relative="1" as="geometry" />
        </mxCell>
        <mxCell id="pOiQRMnXSYwT-0_w7G22-16" value="Fargate Service" style="rhombus;whiteSpace=wrap;html=1;" vertex="1" parent="1">
          <mxGeometry x="510" y="467.5" width="80" height="80" as="geometry" />
        </mxCell>
        <mxCell id="pOiQRMnXSYwT-0_w7G22-41" style="edgeStyle=orthogonalEdgeStyle;rounded=0;orthogonalLoop=1;jettySize=auto;html=1;exitX=1;exitY=0.5;exitDx=0;exitDy=0;entryX=0.5;entryY=1;entryDx=0;entryDy=0;entryPerimeter=0;" edge="1" parent="1" source="pOiQRMnXSYwT-0_w7G22-17" target="pOiQRMnXSYwT-0_w7G22-39">
          <mxGeometry relative="1" as="geometry">
            <mxPoint x="610" y="647.3809523809523" as="targetPoint" />
          </mxGeometry>
        </mxCell>
        <mxCell id="pOiQRMnXSYwT-0_w7G22-17" value="Fargate Service" style="rhombus;whiteSpace=wrap;html=1;" vertex="1" parent="1">
          <mxGeometry x="510" y="607.5" width="80" height="80" as="geometry" />
        </mxCell>
        <mxCell id="pOiQRMnXSYwT-0_w7G22-23" value="" style="edgeStyle=orthogonalEdgeStyle;rounded=0;orthogonalLoop=1;jettySize=auto;html=1;endArrow=classic;endFill=0;" edge="1" parent="1" source="pOiQRMnXSYwT-0_w7G22-22" target="pOiQRMnXSYwT-0_w7G22-39">
          <mxGeometry relative="1" as="geometry">
            <mxPoint x="690" y="580" as="targetPoint" />
            <Array as="points">
              <mxPoint x="700" y="580" />
              <mxPoint x="700" y="580" />
            </Array>
          </mxGeometry>
        </mxCell>
        <mxCell id="pOiQRMnXSYwT-0_w7G22-32" value="Connect" style="edgeLabel;html=1;align=center;verticalAlign=middle;resizable=0;points=[];" vertex="1" connectable="0" parent="pOiQRMnXSYwT-0_w7G22-23">
          <mxGeometry x="-0.1963" y="-3" relative="1" as="geometry">
            <mxPoint y="3" as="offset" />
          </mxGeometry>
        </mxCell>
        <mxCell id="pOiQRMnXSYwT-0_w7G22-22" value="User e.g Yaya" style="shape=umlActor;verticalLabelPosition=bottom;verticalAlign=top;html=1;outlineConnect=0;" vertex="1" parent="1">
          <mxGeometry x="820" y="550" width="30" height="60" as="geometry" />
        </mxCell>
        <mxCell id="pOiQRMnXSYwT-0_w7G22-24" value="" style="rounded=0;whiteSpace=wrap;html=1;fillColor=none;dashed=1;dashPattern=8 8;" vertex="1" parent="1">
          <mxGeometry x="485" y="430" width="130" height="280" as="geometry" />
        </mxCell>
        <mxCell id="pOiQRMnXSYwT-0_w7G22-33" value="" style="rounded=0;whiteSpace=wrap;html=1;fillColor=none;dashed=1;dashPattern=8 8;" vertex="1" parent="1">
          <mxGeometry x="20" y="409.63" width="880" height="321.25" as="geometry" />
        </mxCell>
        <mxCell id="pOiQRMnXSYwT-0_w7G22-38" value="AWS App Containerization" style="text;html=1;strokeColor=none;fillColor=none;align=center;verticalAlign=middle;whiteSpace=wrap;rounded=0;fontStyle=1" vertex="1" parent="1">
          <mxGeometry x="45" y="430" width="160" height="30" as="geometry" />
        </mxCell>
        <mxCell id="pOiQRMnXSYwT-0_w7G22-39" value="" style="outlineConnect=0;dashed=0;verticalLabelPosition=bottom;verticalAlign=top;align=center;html=1;shape=mxgraph.aws3.elastic_load_balancing;fillColor=#F58534;gradientColor=none;" vertex="1" parent="1">
          <mxGeometry x="670" y="535" width="70" height="70.5" as="geometry" />
        </mxCell>
        <mxCell id="pOiQRMnXSYwT-0_w7G22-43" value="" style="outlineConnect=0;dashed=0;verticalLabelPosition=bottom;verticalAlign=top;align=center;html=1;shape=mxgraph.aws3.ecs;fillColor=#F58534;gradientColor=none;" vertex="1" parent="1">
          <mxGeometry x="490" y="440" width="20" height="24" as="geometry" />
        </mxCell>
        <mxCell id="pOiQRMnXSYwT-0_w7G22-46" value="" style="outlineConnect=0;dashed=0;verticalLabelPosition=bottom;verticalAlign=top;align=center;html=1;shape=mxgraph.aws3.ecr;fillColor=#F58534;gradientColor=none;" vertex="1" parent="1">
          <mxGeometry x="290" y="440" width="20" height="20" as="geometry" />
        </mxCell>
      </root>
    </mxGraphModel>
  </diagram>
</mxfile>
